# xmcd
#
# Track frame offsets:
#	150
#	12062
#	18181
#	26039
#	32608
#	42704
#	54760
#	58943
#	75488
#	84156
#	100723
#	107644
#	112436
#	131842
#	147433
#	160348
#	171113
#	182288
#	196026
#	201534
#	207159
#	211647
#	217107
#	223642
#	235067
#	242563
#	255321
#	263259
#	277547
#	284218
#
# Disc length: 3978 seconds
# Revision: 0
# Processed by: cddbd v1.5.2PL0 Copyright (c) Steve Scherf et al.
# Submitted via: dBpowerAMP V12.0
#
DISCID=a00f881e
DTITLE=Various Artist - Classic Banjo from Smithsonian Folkways
DYEAR=2013
DGENRE=Country
TTITLE0=Pete Seeger - Fly Around My Blue-Eyed Girl - Cripple Creek - Ida Red - Old Joe Clark
TTITLE1=Hobart Smith - Banging Breakdown
TTITLE2=Frank Proffitt - Johnson Boys
TTITLE3=Wade Ward - Peachbottom Creek
TTITLE4=Dink Roberts - Coo Coo
TTITLE5=Mike Seeger - Josh Thomas’s Roustabout
TTITLE6=Willie Chapman - Jaw Bone
TTITLE7=Dock Boggs - Bright Sunny South
TTITLE8=Pete Steele - Coal Creek March
TTITLE9=Josh Thomas - Mississippi Heavy Water Blues
TTITLE10=Rufus Crisp - Walk Light Ladies
TTITLE11=Bill Cornett - Buck Creek Girls
TTITLE12=Don Vappie and the Creole Jazz Serenaders - Gut Bucket Blues
TTITLE13=Mick Moloney - Skylark/Roaring Mary
TTITLE14=Ken Perlman - St. Anne’s Reel - La Renfleuse Gorbeil
TTITLE15=Roger Sprung - Smokey Mokes
TTITLE16=A.L. Camp - Golden Bell Polka
TTITLE17=Tony Trischka with Bill Evans - Banjoland
TTITLE18=Snuffy Jenkins - Sally Ann
TTITLE19=Roni Stoneman - Lonesome Road Blues
TTITLE20=Lee Sexton - Fox Chase
TTITLE21=John Tyree - Hop Along Lou
TTITLE22="Big Sweet" Lewis Hairston - Cotton Eyed Joe
TTITLE23=Ola Belle Reed - Foggy Mountain Top
TTITLE24=Doc Watson - Rambling Hobo
TTITLE25=John Snipes - Old Rattler
TTITLE26=Elizabeth Cotten - Georgia Buck
TTITLE27=Irvin Cook - I Wish to the Lord I’d Never Been Born
TTITLE28=Roscoe Holcomb - Black Eye Susie
TTITLE29=Bill Keith with Bill Monroe and The Blue Grass Boys - Bluegrass Breakdown
EXTD=
EXTT0=
EXTT1=
EXTT2=
EXTT3=
EXTT4=
EXTT5=
EXTT6=
EXTT7=
EXTT8=
EXTT9=
EXTT10=
EXTT11=
EXTT12=
EXTT13=
EXTT14=
EXTT15=
EXTT16=
EXTT17=
EXTT18=
EXTT19=
EXTT20=
EXTT21=
EXTT22=
EXTT23=
EXTT24=
EXTT25=
EXTT26=
EXTT27=
EXTT28=
EXTT29=
PLAYORDER=
